<?xml version="1.0" encoding="utf-8"?>
<!-- Svg Vector Icons : http://www.onlinewebfonts.com/icon -->
<!DOCTYPE svg PUBLIC "-//W3C//DTD SVG 1.1//EN" "http://www.w3.org/Graphics/SVG/1.1/DTD/svg11.dtd">
<svg version="1.1" xmlns="http://www.w3.org/2000/svg" xmlns:xlink="http://www.w3.org/1999/xlink" x="0px" y="0px" fill="white" viewBox="0 0 1000 1000" enable-background="new 0 0 1000 1000" xml:space="preserve">
<metadata> Svg Vector Icons : http://www.onlinewebfonts.com/icon </metadata>
<g><path d="M157.4,767.9c-44.1,0-79.8,35.7-79.8,79.8c0,44.1,35.7,79.9,79.8,79.9c44.1,0,79.8-35.8,79.8-79.9C237.2,803.6,201.5,767.9,157.4,767.9L157.4,767.9z"/><path d="M602,767.9c-44.1,0-79.8,35.7-79.8,79.8c0,44.1,35.7,79.9,79.8,79.9c44.1,0,79.8-35.8,79.8-79.9C681.8,803.6,646.1,767.9,602,767.9L602,767.9z"/><path d="M858.3,265.4c-30.9,0-55.9,21.2-64,49.5c-131.6,48.3-129.2,186.7-129.2,186.7H11c9,164.5,168.5,295.6,364.4,295.6c195.1,0,353.8-129.9,364.2-293.2l0.6,0c-2.2-75.6,53.7-112.8,71-122.5c12.2,11.8,28.7,19.3,47,19.3c37.5,0,67.7-30.3,67.7-67.7C926.1,295.7,895.8,265.4,858.3,265.4L858.3,265.4z"/><path d="M990,265.4"/><path d="M405,420.4L277,72.5c0,0-253.4-4.1-267,347.9C386.7,420.4,405,420.4,405,420.4z"/></g>
</svg>